<!-- Generated by IcoMoon.io -->
<svg version="1.1" xmlns="http://www.w3.org/2000/svg" width="32" height="32" viewBox="0 0 32 32">
<title>envelope</title>
<path d="M31.394 11.925c0.244-0.194 0.606-0.012 0.606 0.294v12.781c0 1.656-1.344 3-3 3h-26c-1.656 0-3-1.344-3-3v-12.775c0-0.313 0.356-0.488 0.606-0.294 1.4 1.088 3.256 2.469 9.631 7.1 1.319 0.962 3.544 2.988 5.763 2.975 2.231 0.019 4.5-2.050 5.769-2.975 6.375-4.631 8.225-6.019 9.625-7.106zM16 20c1.45 0.025 3.538-1.825 4.587-2.587 8.294-6.019 8.925-6.544 10.837-8.044 0.363-0.281 0.575-0.719 0.575-1.181v-1.188c0-1.656-1.344-3-3-3h-26c-1.656 0-3 1.344-3 3v1.188c0 0.463 0.212 0.894 0.575 1.181 1.912 1.494 2.544 2.025 10.838 8.044 1.050 0.762 3.138 2.613 4.588 2.587z"></path>
</svg>
