<!-- Generated by IcoMoon.io -->
<svg version="1.1" xmlns="http://www.w3.org/2000/svg" width="36" height="32" viewBox="0 0 36 32">
<title>tripadvisor</title>
<path d="M10.4 17.533c0 0.827-0.671 1.498-1.498 1.498s-1.498-0.671-1.498-1.498 0.671-1.498 1.498-1.498 1.498 0.671 1.498 1.498zM26.96 16.035c-0.827 0-1.497 0.67-1.497 1.497s0.67 1.497 1.497 1.497c0.827 0 1.497-0.67 1.497-1.497s-0.67-1.497-1.497-1.497zM32.547 24.753c-3.917 3.069-9.58 2.382-12.649-1.535l-1.936 2.895-1.918-2.871c-3.017 3.774-8.476 4.493-12.368 1.628-4.004-2.947-4.86-8.582-1.913-12.586-0.41-1.363-1.012-2.551-1.787-3.604l0.023 0.032 5.643-0.003c3.362-2.122 7.452-3.382 11.837-3.382 0.169 0 0.337 0.002 0.505 0.006l-0.025-0c0.116-0.002 0.253-0.003 0.39-0.003 4.307 0 8.324 1.243 11.71 3.391l-0.089-0.053 6.014 0.005c-0.759 1.029-1.365 2.228-1.751 3.521l-0.021 0.082c2.925 3.922 2.185 9.461-1.666 12.478zM16.21 17.61c-0-3.972-3.221-7.192-7.193-7.192s-7.192 3.221-7.192 7.193c0 3.972 3.221 7.192 7.193 7.192 3.97-0.005 7.186-3.221 7.192-7.191v-0.003zM17.997 16.957c0.34-4.59 4.094-8.18 8.695-8.314-2.479-1.1-5.371-1.741-8.412-1.741-0.113 0-0.225 0.001-0.338 0.003l0.017-0c-0.064-0.001-0.14-0.001-0.216-0.001-3.083 0-6.020 0.627-8.69 1.759l0.146-0.055c4.646 0.099 8.456 3.714 8.798 8.349zM33.729 15.159c-1.374-3.727-5.51-5.634-9.237-4.26s-5.634 5.51-4.26 9.237v0.002c1.377 3.725 5.512 5.631 9.239 4.257 3.726-1.375 5.632-5.51 4.258-9.236zM13.351 17.532v0.007c-0.004 2.458-1.999 4.448-4.457 4.444s-4.448-1.999-4.444-4.457c0.004-2.458 1.999-4.448 4.457-4.444 2.454 0.007 4.44 1.996 4.444 4.45zM11.819 17.532v-0.005c-0.003-1.611-1.312-2.915-2.924-2.912s-2.915 1.312-2.912 2.924c0.003 1.611 1.312 2.915 2.924 2.912 1.608-0.007 2.909-1.311 2.912-2.918zM31.408 17.532v0.003c-0.001 2.458-1.995 4.45-4.453 4.448s-4.45-1.995-4.448-4.453c0.001-2.458 1.995-4.45 4.453-4.448 2.456 0.004 4.445 1.994 4.448 4.45zM29.877 17.532c-0.001-1.611-1.307-2.917-2.919-2.917s-2.917 1.307-2.917 2.919c0.001 1.611 1.307 2.917 2.919 2.917 1.61-0.003 2.915-1.308 2.917-2.918v-0.001z"></path>
</svg>
