<!-- Generated by IcoMoon.io -->
<svg version="1.1" xmlns="http://www.w3.org/2000/svg" width="28" height="32" viewBox="0 0 28 32">
<title>viadeo</title>
<path d="M17.262 9.406v0.044c-1.119-3.287-2.662-6.463-4.425-9.45 2.706 1.825 4.188 6.25 4.425 9.406zM19.306 17.012c0.475 1.137 0.688 2.344 0.688 3.563 0 4.856-3.613 8.813-8.613 8.713l0.238-0.019c4.637-2.919 6.831-7.412 6.831-12.819 0-2.381-0.406-4.744-1.181-7 0.063 0.731 0.063 1.481 0.063 2.213 0 5.737-1.131 15.1-7.287 17.5-4.106-0.712-6.956-4.288-6.956-8.587 0-4.725 3.587-8.894 8.462-8.894 1.050 0 2.106 0.194 3.069 0.6 0.106-0.944 0.406-1.869 0.838-2.706-1.244-0.45-2.575-0.669-3.906-0.669-10.094 0-14.919 12.244-8.119 19.606 4.244 4.663 12 4.619 16.238 0 3.538-3.831 3.806-8.9 2.275-12.563-0.794 0.5-1.694 0.869-2.637 1.063zM26.131 0.731c-1.938 4.156-5.081 2.95-7.238 5.006-0.775 0.75-1.288 2.125-1.288 3.156 0 0.881 0.281 1.694 0.75 2.425 2.962-0.688 6.144-2.875 7.387-5.669-0.044 0.344-0.3 0.9-0.45 1.2-1.269 2.231-4.037 4.1-6.231 5.306 0.925 0.9 2.106 1.613 3.438 1.613 4.938 0 6.881-8.412 3.631-13.037z"></path>
</svg>
