<!-- Generated by IcoMoon.io -->
<svg version="1.1" xmlns="http://www.w3.org/2000/svg" width="28" height="32" viewBox="0 0 28 32">
<title>vimeo</title>
<path d="M27.988 9.6c-0.125 2.725-2.025 6.456-5.713 11.194-3.806 4.95-7.025 7.425-9.662 7.425-1.631 0-3.013-1.506-4.144-4.519-2.2-8.075-3.138-12.806-4.956-12.806-0.212 0-0.944 0.444-2.2 1.319l-1.313-1.7c3.225-2.831 6.306-5.981 8.238-6.156 2.181-0.213 3.519 1.281 4.025 4.469 1.794 11.344 2.588 13.056 5.85 7.919 1.169-1.85 1.8-3.256 1.887-4.225 0.3-2.869-2.238-2.675-3.956-1.938 1.375-4.506 4.006-6.694 7.887-6.569 2.863 0.075 4.219 1.944 4.056 5.588z"></path>
</svg>
