<svg xmlns="http://www.w3.org/2000/svg" viewBox="-303 311 20 20">
  <path d="M-295.4 326.3h-.9c-.2 0-.3-.1-.3-.3s.1-.3.3-.3h.2v-10c0-.2.1-.3.3-.3.2 0 .3.1.3.3l.1 10.6zM-290.8 315.9l.2-.5-.5.2-.3-.3v.4l-.5.1.3.3-.1.5.4-.2.4.3.1-.4.4-.1M-291.9 326.6c-.7 0-1.4-.2-2-.7-.1-.1-.2-.3-.1-.5.1-.1.3-.2.5-.1.5.4 1 .5 1.6.5 1.4 0 2.6-1.1 2.6-2.6 0-1.4-1.1-2.6-2.6-2.6-.5 0-1 .2-1.4.5-.1.1-.4.1-.5-.1-.1-.1-.1-.4.1-.5.5-.4 1.2-.5 1.8-.5 1.8 0 3.2 1.4 3.2 3.2s-1.5 3.4-3.2 3.4"/>
  <path d="M-293 330.5c-5.3 0-9.5-4.3-9.5-9.5s4.2-9.5 9.5-9.5 9.5 4.3 9.5 9.5-4.2 9.5-9.5 9.5m0-18.4c-4.9 0-8.9 4-8.9 8.9s4 8.9 8.9 8.9 8.9-4 8.9-8.9-4-8.9-8.9-8.9"/>
</svg>
